<svg xmlns="http://www.w3.org/2000/svg" viewBox="0 0 120 120">
  <defs>
    <radialGradient id="g"><stop offset="0%" stop-color="#ab47bc" stop-opacity=".15"/><stop offset="100%" stop-color="transparent"/></radialGradient>
  </defs>
  <circle cx="60" cy="60" r="55" fill="url(#g)"/>
  <!-- Body (armored) -->
  <path d="M40,45 L38,85 Q60,95 82,85 L80,45 Z" fill="#1a1a2e" stroke="#ab47bc" stroke-width="2"/>
  <!-- Head (helmet) -->
  <path d="M40,45 Q40,20 60,15 Q80,20 80,45 Q70,48 60,48 Q50,48 40,45" fill="#16213e" stroke="#ab47bc" stroke-width="2"/>
  <!-- Visor -->
  <path d="M45,35 L75,35" stroke="#e040fb" stroke-width="2.5"/>
  <!-- Eye slit glow -->
  <rect x="48" y="33" width="8" height="3" fill="#e040fb" rx="1"/>
  <rect x="64" y="33" width="8" height="3" fill="#e040fb" rx="1"/>
  <!-- Shoulder pads -->
  <ellipse cx="32" cy="48" rx="10" ry="6" fill="#16213e" stroke="#ab47bc" stroke-width="1.5"/>
  <ellipse cx="88" cy="48" rx="10" ry="6" fill="#16213e" stroke="#ab47bc" stroke-width="1.5"/>
  <!-- Arms -->
  <line x1="28" y1="52" x2="18" y2="80" stroke="#ab47bc" stroke-width="4" stroke-linecap="round"/>
  <line x1="92" y1="52" x2="102" y2="80" stroke="#ab47bc" stroke-width="4" stroke-linecap="round"/>
  <!-- Dark sword -->
  <line x1="15" y1="78" x2="8" y2="15" stroke="#7c4dff" stroke-width="3"/>
  <polygon points="5,15 8,5 11,15" fill="#7c4dff"/>
  <!-- Legs -->
  <line x1="48" y1="88" x2="44" y2="112" stroke="#ab47bc" stroke-width="4" stroke-linecap="round"/>
  <line x1="72" y1="88" x2="76" y2="112" stroke="#ab47bc" stroke-width="4" stroke-linecap="round"/>
  <!-- Abyss mist -->
  <ellipse cx="60" cy="105" rx="35" ry="8" fill="rgba(171,71,188,.1)"/>
  <!-- Dark aura -->
  <circle cx="60" cy="55" r="40" fill="none" stroke="#ab47bc" stroke-width=".5" opacity=".2"/>
</svg>
