<svg xmlns="http://www.w3.org/2000/svg" viewBox="0 0 120 120">
  <defs>
    <radialGradient id="g"><stop offset="0%" stop-color="#42a5f5" stop-opacity=".15"/><stop offset="100%" stop-color="transparent"/></radialGradient>
  </defs>
  <circle cx="60" cy="60" r="55" fill="url(#g)"/>
  <!-- Body -->
  <ellipse cx="60" cy="60" rx="30" ry="32" fill="#b71c1c" stroke="#e53935" stroke-width="2"/>
  <!-- Head -->
  <circle cx="60" cy="28" r="18" fill="#c62828" stroke="#e53935" stroke-width="2"/>
  <!-- Horns -->
  <path d="M42,20 Q30,5 28,15" fill="none" stroke="#ff8a65" stroke-width="3" stroke-linecap="round"/>
  <path d="M78,20 Q90,5 92,15" fill="none" stroke="#ff8a65" stroke-width="3" stroke-linecap="round"/>
  <!-- Eyes (fierce) -->
  <ellipse cx="52" cy="28" rx="5" ry="3" fill="#ffeb3b"/>
  <ellipse cx="68" cy="28" rx="5" ry="3" fill="#ffeb3b"/>
  <circle cx="52" cy="28" r="2" fill="#000"/>
  <circle cx="68" cy="28" r="2" fill="#000"/>
  <!-- Mouth -->
  <path d="M48,38 Q60,45 72,38" fill="none" stroke="#000" stroke-width="2"/>
  <line x1="52" y1="39" x2="51" y2="44" stroke="#fff" stroke-width="1.5" stroke-linecap="round"/>
  <line x1="60" y1="41" x2="60" y2="46" stroke="#fff" stroke-width="1.5" stroke-linecap="round"/>
  <line x1="68" y1="39" x2="69" y2="44" stroke="#fff" stroke-width="1.5" stroke-linecap="round"/>
  <!-- Arms (huge) -->
  <line x1="30" y1="55" x2="12" y2="65" stroke="#e53935" stroke-width="7" stroke-linecap="round"/>
  <line x1="90" y1="55" x2="108" y2="65" stroke="#e53935" stroke-width="7" stroke-linecap="round"/>
  <!-- Club -->
  <line x1="10" y1="62" x2="5" y2="90" stroke="#795548" stroke-width="4" stroke-linecap="round"/>
  <circle cx="5" cy="92" r="6" fill="#5d4037" stroke="#795548" stroke-width="1.5"/>
  <!-- Legs -->
  <line x1="45" y1="88" x2="40" y2="112" stroke="#e53935" stroke-width="5" stroke-linecap="round"/>
  <line x1="75" y1="88" x2="80" y2="112" stroke="#e53935" stroke-width="5" stroke-linecap="round"/>
</svg>
