<svg xmlns="http://www.w3.org/2000/svg" viewBox="0 0 120 120">
  <defs>
    <radialGradient id="g"><stop offset="0%" stop-color="#ffa726" stop-opacity=".2"/><stop offset="100%" stop-color="transparent"/></radialGradient>
  </defs>
  <circle cx="60" cy="60" r="55" fill="url(#g)"/>
  <!-- Wings -->
  <path d="M20,55 Q2,25 12,10 Q25,18 40,40" fill="rgba(255,167,38,.1)" stroke="#ffa726" stroke-width="2"/>
  <path d="M12,10 Q18,25 28,32" fill="none" stroke="#ffa726" stroke-width="1.5"/>
  <path d="M100,55 Q118,25 108,10 Q95,18 80,40" fill="rgba(255,167,38,.1)" stroke="#ffa726" stroke-width="2"/>
  <path d="M108,10 Q102,25 92,32" fill="none" stroke="#ffa726" stroke-width="1.5"/>
  <!-- Body -->
  <ellipse cx="60" cy="62" rx="22" ry="26" fill="#0d47a1" stroke="#42a5f5" stroke-width="2"/>
  <!-- Scales -->
  <path d="M42,55 Q52,50 60,55 Q68,50 78,55" fill="none" stroke="#42a5f5" stroke-width=".8" opacity=".4"/>
  <path d="M44,65 Q54,60 60,65 Q66,60 76,65" fill="none" stroke="#42a5f5" stroke-width=".8" opacity=".4"/>
  <!-- Head -->
  <path d="M42,38 Q42,18 60,14 Q78,18 78,38 Q70,42 60,42 Q50,42 42,38" fill="#1565c0" stroke="#42a5f5" stroke-width="2"/>
  <!-- Eyes (icy blue) -->
  <circle cx="50" cy="28" r="4" fill="#80deea"/>
  <circle cx="70" cy="28" r="4" fill="#80deea"/>
  <circle cx="50" cy="28" r="2" fill="#006064"/>
  <circle cx="70" cy="28" r="2" fill="#006064"/>
  <!-- Frost breath -->
  <path d="M55,40 Q48,50 40,48" fill="none" stroke="#80deea" stroke-width="1.5" opacity=".5"/>
  <path d="M65,40 Q72,50 80,48" fill="none" stroke="#80deea" stroke-width="1.5" opacity=".5"/>
  <!-- Horns -->
  <path d="M44,22 Q35,10 30,5" fill="none" stroke="#ffa726" stroke-width="2.5" stroke-linecap="round"/>
  <path d="M76,22 Q85,10 90,5" fill="none" stroke="#ffa726" stroke-width="2.5" stroke-linecap="round"/>
  <!-- Tail -->
  <path d="M60,88 Q50,100 42,105 Q38,108 35,105" fill="none" stroke="#42a5f5" stroke-width="3" stroke-linecap="round"/>
  <!-- Ice particles -->
  <polygon points="18,45 20,40 22,45" fill="#80deea" opacity=".5"/>
  <polygon points="98,45 100,40 102,45" fill="#80deea" opacity=".5"/>
</svg>
