<svg xmlns="http://www.w3.org/2000/svg" viewBox="0 0 120 120">
  <defs>
    <radialGradient id="g"><stop offset="0%" stop-color="#ff1744" stop-opacity=".25"/><stop offset="100%" stop-color="transparent"/></radialGradient>
  </defs>
  <circle cx="60" cy="60" r="55" fill="url(#g)"/>
  <!-- Death shroud -->
  <path d="M30,38 L15,110 Q60,118 105,110 L90,38 Z" fill="rgba(10,10,10,.85)" stroke="#d50000" stroke-width="1.5"/>
  <!-- Hood -->
  <path d="M32,40 Q32,8 60,0 Q88,8 88,40 Q74,44 60,44 Q46,44 32,40" fill="#0d0d0d" stroke="#d50000" stroke-width="2"/>
  <!-- Skull face -->
  <circle cx="60" cy="28" r="12" fill="rgba(20,20,20,.9)"/>
  <!-- Eye sockets -->
  <circle cx="53" cy="25" r="4" fill="#000"/>
  <circle cx="67" cy="25" r="4" fill="#000"/>
  <circle cx="53" cy="25" r="2" fill="#ff1744"/>
  <circle cx="67" cy="25" r="2" fill="#ff1744"/>
  <!-- Teeth -->
  <path d="M50,34 L52,38 L54,34 L56,38 L58,34 L60,38 L62,34 L64,38 L66,34 L68,38 L70,34" fill="none" stroke="#ccc" stroke-width="1"/>
  <!-- Great scythe -->
  <line x1="100" y1="40" x2="115" y2="5" stroke="#666" stroke-width="3"/>
  <path d="M115,5 Q120,-2 112,2 Q105,8 108,15" fill="none" stroke="#ff1744" stroke-width="2.5"/>
  <!-- Arm bones -->
  <line x1="32" y1="55" x2="12" y2="65" stroke="#666" stroke-width="3" stroke-linecap="round"/>
  <line x1="88" y1="55" x2="105" y2="42" stroke="#666" stroke-width="3" stroke-linecap="round"/>
  <!-- Soul orbs -->
  <circle cx="15" cy="68" r="4" fill="rgba(255,23,68,.2)" stroke="#ff1744" stroke-width="1"/>
  <circle cx="15" cy="68" r="1.5" fill="#ff1744" opacity=".6"/>
  <!-- Death aura -->
  <circle cx="60" cy="55" r="48" fill="none" stroke="#d50000" stroke-width=".5" opacity=".15" stroke-dasharray="5,5"/>
  <!-- Floating skulls -->
  <circle cx="22" cy="85" r="4" fill="rgba(50,50,50,.5)" stroke="#666" stroke-width=".8"/>
  <circle cx="20" cy="83" r="1" fill="#ff1744" opacity=".5"/>
  <circle cx="24" cy="83" r="1" fill="#ff1744" opacity=".5"/>
  <circle cx="98" cy="80" r="4" fill="rgba(50,50,50,.5)" stroke="#666" stroke-width=".8"/>
  <circle cx="96" cy="78" r="1" fill="#ff1744" opacity=".5"/>
  <circle cx="100" cy="78" r="1" fill="#ff1744" opacity=".5"/>
</svg>
