<svg xmlns="http://www.w3.org/2000/svg" viewBox="0 0 120 120">
  <defs>
    <radialGradient id="g"><stop offset="0%" stop-color="#66bb6a" stop-opacity=".15"/><stop offset="100%" stop-color="transparent"/></radialGradient>
  </defs>
  <circle cx="60" cy="60" r="55" fill="url(#g)"/>
  <!-- Shadow body -->
  <ellipse cx="60" cy="60" rx="20" ry="30" fill="rgba(30,30,30,.8)" stroke="#424242" stroke-width="2"/>
  <!-- Hood/cloak -->
  <path d="M35,45 Q35,15 60,12 Q85,15 85,45 L75,55 Q60,50 45,55 Z" fill="#212121" stroke="#616161" stroke-width="1.5"/>
  <!-- Eyes (glowing green) -->
  <circle cx="50" cy="35" r="3" fill="#69f0ae"/>
  <circle cx="70" cy="35" r="3" fill="#69f0ae"/>
  <circle cx="50" cy="35" r="1.5" fill="#fff"/>
  <circle cx="70" cy="35" r="1.5" fill="#fff"/>
  <!-- Claws -->
  <line x1="35" y1="55" x2="22" y2="65" stroke="#616161" stroke-width="2" stroke-linecap="round"/>
  <line x1="22" y1="65" x2="18" y2="60" stroke="#9e9e9e" stroke-width="1.5" stroke-linecap="round"/>
  <line x1="22" y1="65" x2="16" y2="66" stroke="#9e9e9e" stroke-width="1.5" stroke-linecap="round"/>
  <line x1="85" y1="55" x2="98" y2="65" stroke="#616161" stroke-width="2" stroke-linecap="round"/>
  <line x1="98" y1="65" x2="102" y2="60" stroke="#9e9e9e" stroke-width="1.5" stroke-linecap="round"/>
  <line x1="98" y1="65" x2="104" y2="66" stroke="#9e9e9e" stroke-width="1.5" stroke-linecap="round"/>
  <!-- Shadow wisps -->
  <path d="M45,85 Q40,95 35,105" fill="none" stroke="#424242" stroke-width="2" opacity=".5"/>
  <path d="M55,88 Q58,98 55,110" fill="none" stroke="#424242" stroke-width="2" opacity=".4"/>
  <path d="M75,85 Q80,95 85,105" fill="none" stroke="#424242" stroke-width="2" opacity=".5"/>
</svg>
